<svg width="174" height="47" viewBox="0 0 174 47" fill="none" xmlns="http://www.w3.org/2000/svg">
<g filter="url(#filter0_d_0_419)">
<path d="M4.288 38V35.608L9.072 34.464V5.136L4.288 3.992V1.6H31.12V12.26H28.728L26.544 5.084L15.468 4.668V17.98L26.7 17.044V21.672L15.468 20.788V34.464L21.292 35.608V38H4.288ZM28.8003 38V35.608L33.6883 34.464L46.3243 1.34H50.0683L61.9243 34.516L66.7083 35.608V38H51.4203V35.608L55.2683 34.724L52.7723 27.704H40.0323L37.3283 34.568L41.9043 35.608V38H28.8003ZM41.1763 24.636H51.6283L46.5323 10.44L41.1763 24.636ZM69.7658 9.92C69.7658 7.04267 70.9098 4.80667 73.1978 3.212C75.4858 1.61733 78.4498 0.819998 82.0898 0.819998C85.9724 0.819998 89.5258 1.21866 92.7498 2.016L92.4898 12H90.1498L87.5498 4.512C86.0938 4.23467 84.6204 4.096 83.1298 4.096C80.7378 4.096 78.8484 4.564 77.4618 5.5C76.1098 6.436 75.4338 7.736 75.4338 9.4C75.4338 10.8213 76.0404 12.0173 77.2538 12.988C78.5018 13.924 80.6511 15.0333 83.7018 16.316C85.3311 16.9747 86.6658 17.5987 87.7058 18.188C88.7804 18.7427 89.9244 19.488 91.1378 20.424C92.3511 21.36 93.2524 22.4867 93.8418 23.804C94.4658 25.1213 94.7778 26.5947 94.7778 28.224C94.7778 31.6907 93.4951 34.36 90.9298 36.232C88.5378 37.9653 85.5391 38.8147 81.9338 38.78C80.9631 38.78 79.3511 38.6933 77.0978 38.52C74.8791 38.3467 72.4698 37.8787 69.8698 37.116V26.872H72.2618L74.9138 34.672C76.3698 35.1227 78.0684 35.348 80.0098 35.348C82.7138 35.348 84.8978 34.88 86.5618 33.944C88.2258 32.9733 89.0578 31.4653 89.0578 29.42C89.0578 27.86 88.3124 26.508 86.8218 25.364C85.3311 24.22 83.1471 23.024 80.2698 21.776C76.3178 20.0773 73.5791 18.4307 72.0538 16.836C70.5284 15.2413 69.7658 12.936 69.7658 9.92ZM118.691 0.819998C122.712 0.819998 126.092 1.42667 128.831 2.64V12.468H126.439L124.047 4.772C122.695 4.46 121.135 4.304 119.367 4.304C110.735 4.304 106.419 9.46933 106.419 19.8C106.419 30.1307 110.388 35.296 118.327 35.296C119.506 35.296 120.563 35.2613 121.499 35.192C122.435 35.1227 123.284 35.0187 124.047 34.88L127.063 26.664H129.455L129.091 36.492C128.606 36.7693 127.912 37.0467 127.011 37.324C126.11 37.6013 125.122 37.844 124.047 38.052C123.007 38.26 121.915 38.4333 120.771 38.572C119.662 38.7107 118.639 38.78 117.703 38.78C111.844 38.78 107.407 37.1507 104.391 33.892C101.375 30.6333 99.8668 25.936 99.8668 19.8C99.8668 13.664 101.427 8.96667 104.547 5.708C107.702 2.44933 112.416 0.819998 118.691 0.819998ZM152.174 0.819998C154.982 0.819998 157.46 1.288 159.61 2.224C161.759 3.16 163.579 4.46 165.07 6.124C166.56 7.788 167.687 9.78133 168.45 12.104C169.212 14.4267 169.594 16.9747 169.594 19.748C169.594 22.556 169.212 25.1213 168.45 27.444C167.722 29.7667 166.612 31.7773 165.122 33.476C163.666 35.14 161.846 36.44 159.662 37.376C157.512 38.312 155.016 38.78 152.174 38.78C149.158 38.78 146.54 38.2773 144.322 37.272C142.138 36.2667 140.335 34.9147 138.914 33.216C137.492 31.4827 136.435 29.4547 135.742 27.132C135.083 24.8093 134.754 22.3133 134.754 19.644C134.754 17.044 135.1 14.6173 135.794 12.364C136.487 10.076 137.544 8.08267 138.966 6.384C140.387 4.65066 142.19 3.29866 144.374 2.328C146.592 1.32266 149.192 0.819998 152.174 0.819998ZM152.174 3.888C148.638 3.888 145.951 5.37867 144.114 8.36C142.311 11.3067 141.41 15.12 141.41 19.8C141.41 24.7573 142.363 28.6573 144.27 31.5C146.211 34.308 148.846 35.712 152.174 35.712C155.502 35.712 158.119 34.308 160.026 31.5C161.967 28.6573 162.938 24.7573 162.938 19.8C162.938 15.12 162.019 11.3067 160.182 8.36C158.379 5.37867 155.71 3.888 152.174 3.888Z" fill="#484848"/>
</g>
<defs>
<filter id="filter0_d_0_419" x="0.287994" y="0.820068" width="173.306" height="46.012" filterUnits="userSpaceOnUse" color-interpolation-filters="sRGB">
<feFlood flood-opacity="0" result="BackgroundImageFix"/>
<feColorMatrix in="SourceAlpha" type="matrix" values="0 0 0 0 0 0 0 0 0 0 0 0 0 0 0 0 0 0 127 0" result="hardAlpha"/>
<feOffset dy="4"/>
<feGaussianBlur stdDeviation="2"/>
<feComposite in2="hardAlpha" operator="out"/>
<feColorMatrix type="matrix" values="0 0 0 0 0 0 0 0 0 0 0 0 0 0 0 0 0 0 0.25 0"/>
<feBlend mode="normal" in2="BackgroundImageFix" result="effect1_dropShadow_0_419"/>
<feBlend mode="normal" in="SourceGraphic" in2="effect1_dropShadow_0_419" result="shape"/>
</filter>
</defs>
</svg>
